# Blender v3.1.2 OBJ File: ''
# www.blender.org
mtllib test.mtl
o Cube_Cube.002
v -1.000000 -1.000000 1.000000
v -1.000000 1.000000 1.000000
v -1.000000 -1.000000 -1.000000
v -1.000000 1.000000 -1.000000
v 1.000000 -1.000000 1.000000
v 1.000000 1.000000 1.000000
v 1.000000 -1.000000 -1.000000
v 1.000000 1.000000 -1.000000
v -1.000000 -1.000000 -1.000000
v -0.780304 1.000000 1.466859
v -1.000000 1.000000 -1.000000
v 1.000000 -1.000000 -1.000000
v 1.000000 1.000000 -1.000000
v 1.000000 -1.000000 1.000000
v -1.000000 1.000000 1.686556
v -1.000000 1.974425 1.000000
v -1.000000 1.974425 -1.000000
v 1.000000 1.974425 -1.000000
v 1.000000 1.974425 1.000000
v -1.000000 1.974425 1.000000
v -1.000000 1.974425 -1.000000
v 1.000000 1.974425 -1.000000
v 1.000000 1.974425 1.000000
v 1.584505 1.000000 -1.000000
v 1.584505 -1.000000 -1.000000
v 1.584505 -1.000000 1.000000
v 1.584505 1.000000 1.000000
v 1.000000 -1.000000 1.686556
v 1.000000 -1.000000 2.321779
v -1.000000 1.000000 1.000000
v 1.584505 -1.000000 2.321779
v 1.584505 0.254507 1.000000
v 1.000000 0.254507 1.000000
v 1.584505 0.254507 2.321779
v 1.000000 0.254507 2.321779
v -1.000000 -1.000000 1.686556
v -0.780304 1.000000 1.219697
v 1.000000 0.254507 1.686556
v -1.000000 1.000000 1.000000
v -1.000000 1.000000 1.686556
v 1.000000 1.000000 1.000000
v 1.000000 1.000000 1.686556
v -0.780304 1.000000 1.219697
v -1.000000 1.000000 1.000000
v 0.780304 1.000000 1.219697
v 1.000000 1.000000 1.000000
v -1.000000 1.000000 1.686556
v -0.780304 1.000000 1.466859
v 0.780304 1.000000 1.466859
v 1.000000 1.000000 1.686556
v 0.780304 1.000000 1.219697
v 1.000000 1.000000 1.000000
v 0.780304 1.000000 1.466859
v 1.000000 1.000000 1.686556
v -0.780304 3.129852 1.466859
v -0.780304 3.129852 1.219697
v 0.780304 3.129852 1.219697
v 0.780304 3.129852 1.466859
vt 0.375000 0.000000
vt 0.375000 0.250000
vt 0.625000 0.250000
vt 0.625000 0.000000
vt 0.375000 0.500000
vt 0.625000 0.500000
vt 0.375000 0.750000
vt 0.531813 0.750000
vt 0.625000 0.750000
vt 0.375000 1.000000
vt 0.625000 1.000000
vt 0.125000 0.500000
vt 0.125000 0.750000
vt 0.875000 0.750000
vt 0.875000 0.500000
vt 0.625000 0.000000
vt 0.625000 0.250000
vt 0.375000 0.250000
vt 0.375000 0.063888
vt 0.375000 0.000000
vt 0.625000 0.000000
vt 0.625000 0.500000
vt 0.375000 0.500000
vt 0.625000 0.750000
vt 0.625000 0.750000
vt 0.625000 0.750000
vt 0.625000 0.750000
vt 0.625000 0.750000
vt 0.625000 0.750000
vt 0.125000 0.500000
vt 0.375000 0.750000
vt 0.375000 0.750000
vt 0.125000 0.750000
vt 0.125000 0.686112
vt 0.625000 0.000000
vt 0.625000 0.250000
vt 0.625000 1.000000
vt 0.625000 0.750000
vt 0.625000 0.750000
vt 0.625000 1.000000
vt 0.625000 1.000000
vt 0.625000 0.500000
vt 0.625000 0.500000
vt 0.875000 0.500000
vt 0.875000 0.750000
vt 0.625000 0.250000
vt 0.625000 0.000000
vt 0.375000 0.500000
vt 0.625000 0.500000
vt 0.531813 0.750000
vt 0.375000 0.750000
vt 0.625000 0.750000
vt 0.375000 0.750000
vt 0.375000 0.750000
vt 0.625000 0.750000
vt 0.625000 1.000000
vt 0.625000 0.750000
vt 0.531813 0.750000
vt 0.625000 1.000000
vt 0.375000 1.000000
vt 0.625000 0.777462
vt 0.625000 0.972538
vt 0.625000 0.972538
vt 0.625000 0.777462
vt 0.625000 0.750000
vt 0.625000 1.000000
vt 0.625000 1.000000
vt 0.625000 1.000000
vt 0.625000 0.972538
vt 0.625000 0.972538
vt 0.625000 0.777462
vt 0.625000 0.777462
vt 0.625000 0.777462
vt 0.625000 0.750000
vt 0.625000 0.750000
vt 0.625000 0.972538
vt 0.625000 0.972538
vt 0.625000 0.777462
vn 1.0000 0.0000 0.0000
vn 0.0000 0.0000 1.0000
vn -1.0000 0.0000 0.0000
vn 0.0000 0.0000 -1.0000
vn 0.0000 1.0000 0.0000
vn 0.0000 -1.0000 0.0000
g Cube_Cube.002_Material.002
usemtl Material.002
s off
f 1/1/1 3/2/1 4/3/1 2/4/1
f 3/2/2 7/5/2 8/6/2 4/3/2
f 7/5/3 5/7/3 33/8/3 6/9/3 8/6/3
f 5/7/4 1/10/4 2/11/4 6/9/4 33/8/4
f 3/12/5 1/13/5 5/7/5 7/5/5
f 8/6/6 6/9/6 2/14/6 4/15/6
f 39/16/3 11/17/3 9/18/3 1/19/3 36/20/3 40/21/3
f 9/18/4 11/17/4 13/22/4 12/23/4
f 27/24/2 41/25/2 33/26/2 32/27/2
f 33/26/1 41/25/1 42/28/1 38/29/1
f 9/30/6 12/23/6 14/31/6 28/32/6 36/33/6 1/34/6
f 11/17/3 39/16/3 16/35/3 17/36/3
f 16/37/2 19/38/2 23/39/2 20/40/2
f 39/41/2 41/25/2 19/38/2 16/37/2
f 13/22/4 11/17/4 17/36/4 18/42/4
f 41/25/1 13/22/1 18/42/1 19/38/1
f 22/43/5 21/44/5 20/45/5 23/39/5
f 18/42/2 17/36/2 21/46/2 22/43/2
f 19/38/2 18/42/2 22/43/2 23/39/2
f 17/36/2 16/35/2 20/47/2 21/46/2
f 25/48/1 24/49/1 27/24/1 32/50/1 26/51/1
f 14/31/6 12/23/6 25/48/6 26/51/6
f 13/22/5 41/25/5 27/24/5 24/49/5
f 12/23/4 13/22/4 24/49/4 25/48/4
f 35/52/2 29/53/2 31/54/2 34/55/2
f 44/56/2 46/57/2 41/25/2 39/41/2
f 14/31/6 26/51/6 31/54/6 29/53/6 28/32/6
f 32/27/5 33/26/5 38/29/5 35/52/5 34/55/5
f 28/32/2 38/58/2 42/28/2 40/59/2 36/60/2
f 26/51/1 32/27/1 34/55/1 31/54/1
f 28/32/3 29/53/3 35/52/3 38/58/3
f 45/61/4 43/62/4 56/63/4 57/64/4
f 46/57/2 50/65/2 42/28/2 41/25/2
f 50/65/2 47/66/2 40/59/2 42/28/2
f 30/67/5 15/68/5 10/69/5 37/70/5
f 45/61/2 49/71/2 53/72/2 51/73/2
f 50/65/2 46/57/2 52/74/2 54/75/2
f 47/66/2 50/65/2 54/75/2 15/68/2
f 43/62/2 45/61/2 51/73/2 37/70/2
f 47/66/2 44/56/2 39/41/2 40/59/2
f 52/74/5 30/67/5 37/70/5 51/73/5
f 51/73/5 53/72/5 54/75/5 52/74/5
f 53/72/5 10/69/5 15/68/5 54/75/5
f 46/57/2 44/56/2 30/67/2 52/74/2
f 48/76/2 43/62/2 37/70/2 10/69/2
f 44/56/2 47/66/2 15/68/2 30/67/2
f 49/71/2 48/76/2 10/69/2 53/72/2
f 57/64/5 56/63/5 55/77/5 58/78/5
f 49/71/1 45/61/1 57/64/1 58/78/1
f 43/62/3 48/76/3 55/77/3 56/63/3
f 48/76/2 49/71/2 58/78/2 55/77/2
