# Blender 3.1.2
# www.blender.org
mtllib test.mtl
o Cube
v -1.000000 -1.000000 1.000000
v -1.000000 1.000000 1.000000
v -1.000000 -1.000000 -1.000000
v -1.000000 1.000000 -1.000000
v 1.000000 -1.000000 1.000000
v 1.000000 1.000000 1.000000
v 1.000000 -1.000000 -1.000000
v 1.000000 1.000000 -1.000000
v -1.000000 -1.000000 -1.000000
v -0.780304 1.000000 1.466859
v -1.000000 1.000000 -1.000000
v 1.000000 -1.000000 -1.000000
v 1.000000 1.000000 -1.000000
v 1.000000 -1.000000 1.000000
v -1.000000 1.000000 1.686556
v -1.000000 1.974425 1.000000
v -1.000000 1.974425 -1.000000
v 1.000000 1.974425 -1.000000
v 1.000000 1.974425 1.000000
v -1.000000 1.974425 1.000000
v -1.000000 1.974425 -1.000000
v 1.000000 1.974425 -1.000000
v 1.000000 1.974425 1.000000
v 1.584505 1.000000 -1.000000
v 1.584505 -1.000000 -1.000000
v 1.584505 -1.000000 1.000000
v 1.584505 1.000000 1.000000
v 1.000000 -1.000000 1.686556
v 1.000000 -1.000000 2.321779
v -1.000000 1.000000 1.000000
v 1.584505 -1.000000 2.321779
v 1.584505 0.254507 1.000000
v 1.000000 0.254507 1.000000
v 1.584505 0.254507 2.321779
v 1.000000 0.254507 2.321779
v -1.000000 -1.000000 1.686556
v -0.780304 1.000000 1.219697
v 1.000000 0.254507 1.686556
v -1.000000 1.000000 1.000000
v -1.000000 1.000000 1.686556
v 1.000000 1.000000 1.000000
v 1.000000 1.000000 1.686556
v -0.780304 1.000000 1.219697
v -1.000000 1.000000 1.000000
v 0.780304 1.000000 1.219697
v 1.000000 1.000000 1.000000
v -1.000000 1.000000 1.686556
v -0.780304 1.000000 1.466859
v 0.780304 1.000000 1.466859
v 1.000000 1.000000 1.686556
v 0.780304 1.000000 1.219697
v 1.000000 1.000000 1.000000
v 0.780304 1.000000 1.466859
v 1.000000 1.000000 1.686556
v -0.780304 3.129852 1.466859
v -0.780304 3.129852 1.219697
v 0.780304 3.129852 1.219697
v 0.780304 3.129852 1.466859
vn 1.0000 -0.0000 -0.0000
vn -0.0000 -0.0000 1.0000
vn -1.0000 -0.0000 -0.0000
vn -0.0000 -0.0000 -1.0000
vn -0.0000 1.0000 -0.0000
vn -0.0000 -1.0000 -0.0000
vt 0.375000 0.000000
vt 0.375000 1.000000
vt 0.125000 0.750000
vt 0.375000 0.063888
vt 0.125000 0.686112
vt 0.625000 0.000000
vt 0.625000 1.000000
vt 0.875000 0.750000
vt 0.375000 0.250000
vt 0.125000 0.500000
vt 0.625000 0.250000
vt 0.875000 0.500000
vt 0.375000 0.750000
vt 0.625000 0.750000
vt 0.375000 0.500000
vt 0.625000 0.500000
vt 0.375000 0.250000
vt 0.125000 0.500000
vt 0.625000 0.972538
vt 0.625000 0.250000
vt 0.375000 0.500000
vt 0.625000 0.500000
vt 0.375000 0.750000
vt 0.625000 1.000000
vt 0.625000 1.000000
vt 0.625000 0.000000
vt 0.625000 0.250000
vt 0.625000 0.500000
vt 0.625000 0.750000
vt 0.625000 1.000000
vt 0.875000 0.750000
vt 0.625000 0.000000
vt 0.875000 0.500000
vt 0.625000 0.250000
vt 0.625000 0.500000
vt 0.625000 0.750000
vt 0.625000 0.500000
vt 0.375000 0.500000
vt 0.375000 0.750000
vt 0.625000 0.750000
vt 0.375000 0.750000
vt 0.375000 0.750000
vt 0.625000 1.000000
vt 0.375000 0.750000
vt 0.531813 0.750000
vt 0.625000 0.750000
vt 0.531813 0.750000
vt 0.625000 0.750000
vt 0.625000 0.750000
vt 0.625000 0.750000
vt 0.375000 0.000000
vt 0.125000 0.750000
vt 0.375000 1.000000
vt 0.625000 0.972538
vt 0.625000 0.750000
vt 0.531813 0.750000
vt 0.625000 0.000000
vt 0.625000 1.000000
vt 0.625000 0.000000
vt 0.625000 1.000000
vt 0.625000 0.750000
vt 0.625000 0.750000
vt 0.625000 0.972538
vt 0.625000 1.000000
vt 0.625000 0.777462
vt 0.625000 0.750000
vt 0.625000 1.000000
vt 0.625000 0.972538
vt 0.625000 0.777462
vt 0.625000 0.750000
vt 0.625000 0.777462
vt 0.625000 0.750000
vt 0.625000 0.777462
vt 0.625000 0.750000
vt 0.625000 0.972538
vt 0.625000 0.972538
vt 0.625000 0.777462
vt 0.625000 0.777462
s 0
usemtl Material.002
f 1/1/1 3/9/1 4/11/1 2/6/1
f 3/9/2 7/15/2 8/16/2 4/11/2
f 7/15/3 5/13/3 33/47/3 6/14/3 8/16/3
f 5/13/4 1/2/4 2/7/4 6/14/4 33/47/4
f 3/10/5 1/3/5 5/13/5 7/15/5
f 8/16/6 6/14/6 2/8/6 4/12/6
f 39/57/3 11/20/3 9/17/3 1/4/3 36/51/3 40/59/3
f 9/17/4 11/20/4 13/22/4 12/21/4
f 27/40/2 41/61/2 33/48/2 32/46/2
f 33/48/1 41/61/1 42/62/1 38/55/1
f 9/18/6 12/21/6 14/23/6 28/41/6 36/52/6 1/5/6
f 11/20/3 39/57/3 16/26/3 17/27/3
f 16/25/5 19/29/5 23/36/5 20/30/5
f 39/58/2 41/61/2 19/29/2 16/25/2
f 13/22/4 11/20/4 17/27/4 18/28/4
f 41/61/1 13/22/1 18/28/1 19/29/1
f 22/35/5 21/33/5 20/31/5 23/36/5
f 18/28/5 17/27/5 21/34/5 22/35/5
f 19/29/5 18/28/5 22/35/5 23/36/5
f 17/27/5 16/26/5 20/32/5 21/34/5
f 25/38/1 24/37/1 27/40/1 32/45/1 26/39/1
f 14/23/6 12/21/6 25/38/6 26/39/6
f 13/22/5 41/61/5 27/40/5 24/37/5
f 12/21/4 13/22/4 24/37/4 25/38/4
f 35/50/2 29/42/2 31/44/2 34/49/2
f 44/64/5 46/66/5 41/61/5 39/58/5
f 14/23/6 26/39/6 31/44/6 29/42/6 28/41/6
f 32/46/5 33/48/5 38/55/5 35/50/5 34/49/5
f 28/41/2 38/56/2 42/62/2 40/60/2 36/53/2
f 26/39/1 32/46/1 34/49/1 31/44/1
f 28/41/3 29/42/3 35/50/3 38/56/3
f 45/65/4 43/63/4 56/76/4 57/77/4
f 46/66/5 50/70/5 42/62/5 41/61/5
f 50/70/5 47/67/5 40/60/5 42/62/5
f 30/43/5 15/24/5 10/19/5 37/54/5
f 45/65/5 49/69/5 53/73/5 51/71/5
f 50/70/5 46/66/5 52/72/5 54/74/5
f 47/67/5 50/70/5 54/74/5 15/24/5
f 43/63/5 45/65/5 51/71/5 37/54/5
f 47/67/5 44/64/5 39/58/5 40/60/5
f 52/72/5 30/43/5 37/54/5 51/71/5
f 51/71/5 53/73/5 54/74/5 52/72/5
f 53/73/5 10/19/5 15/24/5 54/74/5
f 46/66/5 44/64/5 30/43/5 52/72/5
f 48/68/5 43/63/5 37/54/5 10/19/5
f 44/64/5 47/67/5 15/24/5 30/43/5
f 49/69/5 48/68/5 10/19/5 53/73/5
f 57/77/5 56/76/5 55/75/5 58/78/5
f 49/69/1 45/65/1 57/77/1 58/78/1
f 43/63/3 48/68/3 55/75/3 56/76/3
f 48/68/2 49/69/2 58/78/2 55/75/2
